<svg width="70" height="70" viewBox="0 0 70 70" fill="none" xmlns="http://www.w3.org/2000/svg">
<path d="M0 35C0 54.33 15.67 70 35 70C54.33 70 70 54.33 70 35C70 15.67 54.33 0 35 0C15.67 0 0 15.67 0 35Z" fill="#1877F2"/>
<path d="M52.5 35C52.5 25.375 44.625 17.5 35 17.5C25.375 17.5 17.5 25.375 17.5 35C17.5 43.75 23.8437 50.9688 32.1562 52.2812V40.0312H27.7812V35H32.1562V31.0625C32.1562 26.6875 34.7813 24.2813 38.7188 24.2813C40.6875 24.2813 42.6562 24.7188 42.6562 24.7188V29.0938H40.4688C38.2812 29.0938 37.625 30.4062 37.625 31.7188V35H42.4375L41.5625 40.0312H37.4062V52.5C46.1562 51.1875 52.5 43.75 52.5 35Z" fill="white"/>
</svg>
