<svg width="70" height="70" viewBox="0 0 70 70" fill="none" xmlns="http://www.w3.org/2000/svg">
<path d="M0 35C0 54.33 15.67 70 35 70C54.33 70 70 54.33 70 35C70 15.67 54.33 0 35 0C15.67 0 0 15.67 0 35Z" fill="#F00073"/>
<path d="M35 20.125C39.8125 20.125 40.4688 20.125 42.4375 20.125C44.1875 20.125 45.0625 20.5625 45.7188 20.7813C46.5937 21.2188 47.25 21.4375 47.9062 22.0938C48.5625 22.75 49 23.4063 49.2188 24.2813C49.4375 24.9375 49.6562 25.8125 49.875 27.5625C49.875 29.5313 49.875 29.9688 49.875 35C49.875 40.0312 49.875 40.4688 49.875 42.4375C49.875 44.1875 49.4375 45.0625 49.2188 45.7188C48.7812 46.5937 48.5625 47.25 47.9062 47.9062C47.25 48.5625 46.5937 49 45.7188 49.2188C45.0625 49.4375 44.1875 49.6562 42.4375 49.875C40.4688 49.875 40.0312 49.875 35 49.875C29.9688 49.875 29.5313 49.875 27.5625 49.875C25.8125 49.875 24.9375 49.4375 24.2813 49.2188C23.4063 48.7812 22.75 48.5625 22.0938 47.9062C21.4375 47.25 21 46.5937 20.7813 45.7188C20.5625 45.0625 20.3438 44.1875 20.125 42.4375C20.125 40.4688 20.125 40.0312 20.125 35C20.125 29.9688 20.125 29.5313 20.125 27.5625C20.125 25.8125 20.5625 24.9375 20.7813 24.2813C21.2188 23.4063 21.4375 22.75 22.0938 22.0938C22.75 21.4375 23.4063 21 24.2813 20.7813C24.9375 20.5625 25.8125 20.3438 27.5625 20.125C29.5313 20.125 30.1875 20.125 35 20.125ZM35 16.8438C29.9688 16.8438 29.5313 16.8438 27.5625 16.8438C25.5938 16.8438 24.2813 17.2813 23.1875 17.7188C22.0938 18.1563 21 18.8125 19.9063 19.9063C18.8125 21 18.375 21.875 17.7188 23.1875C17.2813 24.2813 17.0625 25.5938 16.8438 27.5625C16.8438 29.5313 16.8438 30.1875 16.8438 35C16.8438 40.0312 16.8438 40.4688 16.8438 42.4375C16.8438 44.4062 17.2813 45.7188 17.7188 46.8125C18.1563 47.9062 18.8125 49 19.9063 50.0938C21 51.1875 21.875 51.625 23.1875 52.2812C24.2813 52.7188 25.5938 52.9375 27.5625 53.1562C29.5313 53.1562 30.1875 53.1562 35 53.1562C39.8125 53.1562 40.4688 53.1562 42.4375 53.1562C44.4062 53.1562 45.7188 52.7188 46.8125 52.2812C47.9062 51.8438 49 51.1875 50.0938 50.0938C51.1875 49 51.625 48.125 52.2812 46.8125C52.7188 45.7188 52.9375 44.4062 53.1562 42.4375C53.1562 40.4688 53.1562 39.8125 53.1562 35C53.1562 30.1875 53.1562 29.5313 53.1562 27.5625C53.1562 25.5938 52.7188 24.2813 52.2812 23.1875C51.8438 22.0938 51.1875 21 50.0938 19.9063C49 18.8125 48.125 18.375 46.8125 17.7188C45.7188 17.2813 44.4062 17.0625 42.4375 16.8438C40.4688 16.8438 40.0312 16.8438 35 16.8438Z" fill="white"/>
<path d="M35 25.5938C29.75 25.5938 25.5938 29.75 25.5938 35C25.5938 40.25 29.75 44.4062 35 44.4062C40.25 44.4062 44.4062 40.25 44.4062 35C44.4062 29.75 40.25 25.5938 35 25.5938ZM35 41.125C31.7188 41.125 28.875 38.5 28.875 35C28.875 31.7188 31.5 28.875 35 28.875C38.2812 28.875 41.125 31.5 41.125 35C41.125 38.2812 38.2812 41.125 35 41.125Z" fill="white"/>
<path d="M44.625 27.5625C45.8331 27.5625 46.8125 26.5831 46.8125 25.375C46.8125 24.1669 45.8331 23.1875 44.625 23.1875C43.4169 23.1875 42.4375 24.1669 42.4375 25.375C42.4375 26.5831 43.4169 27.5625 44.625 27.5625Z" fill="white"/>
</svg>
