<svg width="70" height="70" viewBox="0 0 70 70" fill="none" xmlns="http://www.w3.org/2000/svg">
<path d="M0 35C0 54.33 15.67 70 35 70C54.33 70 70 54.33 70 35C70 15.67 54.33 0 35 0C15.67 0 0 15.67 0 35Z" fill="#0088CC"/>
<path d="M17.7186 34.3619C27.1138 30.2685 33.3787 27.57 36.5134 26.2661C45.4636 22.5435 47.3233 21.8968 48.5355 21.8752C48.8021 21.8707 49.3982 21.9368 49.7844 22.2501C50.1104 22.5147 50.2001 22.8721 50.2431 23.1229C50.286 23.3738 50.3394 23.9452 50.2969 24.3916C49.8119 29.4877 47.7133 41.8545 46.6456 47.5622C46.1938 49.9773 45.3043 50.7871 44.4431 50.8664C42.5715 51.0386 41.1504 49.6295 39.3377 48.4412C36.5012 46.5819 34.8987 45.4244 32.1454 43.61C28.9634 41.5132 31.0262 40.3607 32.8395 38.4772C33.3141 37.9843 41.5602 30.4838 41.7199 29.8034C41.7398 29.7183 41.7583 29.4011 41.5699 29.2336C41.3814 29.0661 41.1033 29.1234 40.9026 29.1689C40.6181 29.2335 36.0868 32.2286 27.3085 38.1541C26.0223 39.0374 24.8573 39.4677 23.8135 39.4451C22.6628 39.4203 20.4492 38.7945 18.8037 38.2596C16.7854 37.6035 15.1813 37.2567 15.321 36.1425C15.3937 35.5621 16.1929 34.9686 17.7186 34.3619Z" fill="white"/>
</svg>
