<svg width="70" height="70" viewBox="0 0 70 70" fill="none" xmlns="http://www.w3.org/2000/svg">
<path d="M0 35C0 15.67 15.67 0 35 0C54.33 0 70 15.67 70 35C70 54.33 54.33 70 35 70C15.67 70 0 54.33 0 35Z" fill="black"/>
<path d="M31.7152 31.2819V29.9194C31.2484 29.857 30.7738 29.8181 30.2837 29.8181C24.441 29.8104 19.6875 34.5678 19.6875 40.4232C19.6875 44.0128 21.4769 47.1896 24.2154 49.1129C22.4494 47.2208 21.368 44.6746 21.368 41.8871C21.368 36.1173 25.9892 31.4143 31.7152 31.2819Z" fill="#25F4EE"/>
<path d="M31.9721 46.7302C34.5783 46.7302 36.71 44.6513 36.8034 42.0662L36.8112 18.9639H41.0279C40.9422 18.4889 40.8956 17.9983 40.8956 17.5H35.1385L35.1307 40.6024C35.0374 43.1875 32.9056 45.2664 30.2994 45.2664C29.4903 45.2664 28.7279 45.0639 28.051 44.7058C28.9224 45.9282 30.3539 46.7302 31.9721 46.7302Z" fill="#25F4EE"/>
<path d="M48.9089 26.8048V25.5201C47.2986 25.5201 45.8048 25.0451 44.5444 24.2197C45.6647 25.5045 47.1818 26.4389 48.9089 26.8048Z" fill="#25F4EE"/>
<path d="M44.5443 24.2197C43.315 22.8104 42.576 20.9728 42.576 18.9639H41.0356C41.4323 21.1596 42.7394 23.044 44.5443 24.2197Z" fill="#FE2C55"/>
<path d="M30.2915 35.5722C27.623 35.5722 25.4524 37.7447 25.4524 40.4154C25.4524 42.2764 26.5104 43.8959 28.0509 44.7058C27.4752 43.9115 27.1328 42.9383 27.1328 41.8793C27.1328 39.2085 29.3034 37.0361 31.972 37.0361C32.4699 37.0361 32.9522 37.1217 33.4034 37.2619V31.3754C32.9366 31.3131 32.4621 31.2741 31.972 31.2741C31.8863 31.2741 31.8085 31.2819 31.723 31.2819V35.7981C31.2639 35.6579 30.7894 35.5722 30.2915 35.5722Z" fill="#FE2C55"/>
<path d="M48.9087 26.8047V31.2819C45.9212 31.2819 43.1516 30.3242 40.8953 28.7046V40.4232C40.8953 46.2708 36.1419 51.0362 30.2914 51.0362C28.0352 51.0362 25.9347 50.3198 24.2153 49.1129C26.1525 51.1918 28.9144 52.5 31.9719 52.5C37.8145 52.5 42.5758 47.7425 42.5758 41.8871V30.1685C44.832 31.7881 47.6016 32.7458 50.5891 32.7458V26.9839C50.0056 26.9839 49.4454 26.9215 48.9087 26.8047Z" fill="#FE2C55"/>
<path d="M40.8953 40.4232V28.7046C43.1516 30.3243 45.9212 31.2819 48.9087 31.2819V26.8048C47.1815 26.4389 45.6645 25.5045 44.5442 24.2197C42.7392 23.044 41.44 21.1596 41.0276 18.9639H36.811L36.8032 42.0661C36.7099 44.6512 34.5781 46.7302 31.9719 46.7302C30.3537 46.7302 28.9299 45.9282 28.0431 44.7136C26.5026 43.896 25.4446 42.2843 25.4446 40.4232C25.4446 37.7525 27.6151 35.5801 30.2836 35.5801C30.7816 35.5801 31.2639 35.6657 31.7151 35.8059V31.2897C25.9892 31.4143 21.3679 36.1173 21.3679 41.8871C21.3679 44.6746 22.4493 47.213 24.2153 49.1129C25.9347 50.3198 28.0353 51.0362 30.2914 51.0362C36.1341 51.0362 40.8953 46.2708 40.8953 40.4232Z" fill="white"/>
</svg>
